<?xml version="1.0" encoding="UTF-8" standalone="no" ?>
<!DOCTYPE svg PUBLIC "-//W3C//DTD SVG 1.1//EN" "http://www.w3.org/Graphics/SVG/1.1/DTD/svg11.dtd">
<svg xmlns="http://www.w3.org/2000/svg" xmlns:xlink="http://www.w3.org/1999/xlink" version="1.1" width="1080" height="1080" viewBox="0 0 1080 1080" xml:space="preserve">
<desc>Created with Fabric.js 5.2.4</desc>
<defs>
</defs>
<g transform="matrix(1 0 0 1 540 540)" id="f2580815-5c4a-415e-99c4-1b7d97b731ae"  >
<rect style="stroke: none; stroke-width: 1; stroke-dasharray: none; stroke-linecap: butt; stroke-dashoffset: 0; stroke-linejoin: miter; stroke-miterlimit: 4; fill: rgb(255,255,255); fill-rule: nonzero; opacity: 1; visibility: hidden;" vector-effect="non-scaling-stroke"  x="-540" y="-540" rx="0" ry="0" width="1080" height="1080" />
</g>
<g transform="matrix(1 0 0 1 540 540)" id="8d6ac998-cedd-46a7-b7ab-669941a112e0"  >
</g>
<g transform="matrix(77.14 0 0 77.14 540 540)"  >
<path style="stroke: none; stroke-width: 1; stroke-dasharray: none; stroke-linecap: butt; stroke-dashoffset: 0; stroke-linejoin: miter; stroke-miterlimit: 4; fill: rgb(84,102,121); fill-rule: evenodd; opacity: 1;"  transform=" translate(-7, -4)" d="M 0.292893 0.292893 C 0.683417 -0.0976311 1.31658 -0.0976311 1.70711 0.292893 L 7 5.58579 L 12.2929 0.292893 C 12.6834 -0.0976311 13.3166 -0.0976311 13.7071 0.292893 C 14.0976 0.683417 14.0976 1.31658 13.7071 1.70711 L 7.70711 7.70711 C 7.31658 8.09763 6.68342 8.09763 6.29289 7.70711 L 0.292893 1.70711 C -0.0976311 1.31658 -0.0976311 0.683417 0.292893 0.292893 Z" stroke-linecap="round" />
</g>
</svg>