<?xml version="1.0" encoding="UTF-8" standalone="no" ?>
<!DOCTYPE svg PUBLIC "-//W3C//DTD SVG 1.1//EN" "http://www.w3.org/Graphics/SVG/1.1/DTD/svg11.dtd">
<svg xmlns="http://www.w3.org/2000/svg" xmlns:xlink="http://www.w3.org/1999/xlink" version="1.1" width="1080" height="1080" viewBox="0 0 1080 1080" xml:space="preserve">
<desc>Created with Fabric.js 5.2.4</desc>
<defs>
</defs>
<g transform="matrix(1 0 0 1 540 540)" id="e5fc0e34-8706-4698-859d-cf329eb0e5c0"  >
<rect style="stroke: none; stroke-width: 1; stroke-dasharray: none; stroke-linecap: butt; stroke-dashoffset: 0; stroke-linejoin: miter; stroke-miterlimit: 4; fill: rgb(255,255,255); fill-rule: nonzero; opacity: 1; visibility: hidden;" vector-effect="non-scaling-stroke"  x="-540" y="-540" rx="0" ry="0" width="1080" height="1080" />
</g>
<g transform="matrix(1 0 0 1 540 540)" id="ab4258d2-bd64-45b2-bd94-eed048f496fc"  >
</g>
<g transform="matrix(18 0 0 18 540 540)"  >
<g style=""   >
		<g transform="matrix(1 0 0 1 0 0)"  >
<path style="stroke: none; stroke-width: 1; stroke-dasharray: none; stroke-linecap: butt; stroke-dashoffset: 0; stroke-linejoin: miter; stroke-miterlimit: 4; fill: rgb(255,255,255); fill-rule: nonzero; opacity: 1;" vector-effect="non-scaling-stroke"  transform=" translate(-30, -30)" d="M 53.9016 44.1216 C 53.9662 44.046 54.0163 43.959 54.0492 43.8652 C 56.4888 39.6516 57.7735 34.8689 57.7735 30 C 57.7735 25.1311 56.4888 20.3484 54.0492 16.1348 C 54.0163 16.041 53.9662 15.954 53.9016 15.8784 C 50.2936 9.79404 44.5085 5.30786 37.7175 3.32812 C 37.6484 3.29661 37.5752 3.275 37.5 3.2639 C 32.5957 1.88064 27.4043 1.88064 22.5 3.2639 C 22.426 3.2744 22.3538 3.2949 22.2853 3.32484 C 15.4926 5.30446 9.7062 9.79202 6.09843 15.8784 C 6.03377 15.954 5.9837 16.041 5.95078 16.1348 C 3.51118 20.3484 2.22653 25.1311 2.22653 30 C 2.22653 34.8689 3.51118 39.6516 5.95078 43.8652 C 5.9837 43.959 6.03377 44.046 6.09843 44.1216 C 9.70345 50.2034 15.4838 54.6889 22.2703 56.6709 C 22.342 56.7029 22.418 56.7246 22.4958 56.7352 C 27.4016 58.1192 32.5947 58.1192 37.5005 56.7352 C 37.5823 56.7249 37.6621 56.7023 37.7372 56.6681 C 44.5203 54.6849 50.2976 50.2006 53.9016 44.1216 Z M 30.8203 56.1122 L 30.8203 44.4141 L 42.0295 44.4141 C 40.8108 48.8719 39.0572 52.5759 36.9244 55.1953 C 34.9332 55.7419 32.8842 56.0497 30.8203 56.1122 Z M 23.0756 55.1944 C 20.9428 52.5759 19.1892 48.8723 17.9705 44.4131 L 29.1797 44.4131 L 29.1797 56.1112 C 27.1158 56.0487 25.0668 55.741 23.0756 55.1944 Z M 3.88781 30.8194 L 7.5 30.8194 L 7.5 37.2656 C 7.50012 37.4831 7.58659 37.6917 7.7404 37.8455 C 7.89421 37.9993 8.10279 38.0858 8.32031 38.0859 L 15.0305 38.0859 C 15.248 39.6905 15.5302 41.2594 15.8742 42.7734 L 7.21406 42.7734 C 5.15515 39.1166 4.01378 35.015 3.88781 30.8203 L 3.88781 30.8194 Z M 7.21593 17.2256 L 15.8747 17.2256 C 15.5302 18.7397 15.248 20.3091 15.0309 21.9131 L 8.32031 21.9131 C 8.21252 21.9132 8.1058 21.9345 8.00625 21.9758 C 7.90669 22.0171 7.81624 22.0776 7.74007 22.1539 C 7.66389 22.2301 7.60349 22.3206 7.56229 22.4202 C 7.5211 22.5198 7.49993 22.6266 7.5 22.7344 L 7.5 29.1797 L 3.88781 29.1797 C 4.01378 24.985 5.15515 20.8834 7.21406 17.2266 L 7.21593 17.2256 Z M 29.1797 3.88781 L 29.1797 15.5859 L 17.9705 15.5859 C 19.1892 11.1281 20.9428 7.42406 23.0756 4.80468 C 25.0668 4.25809 27.1158 3.9503 29.1797 3.88781 Z M 36.9244 4.80562 C 39.0572 7.42406 40.8108 11.1277 42.0295 15.5869 L 30.8203 15.5869 L 30.8203 3.88781 C 32.8842 3.95061 34.9333 4.25871 36.9244 4.80562 Z M 56.1122 29.1806 L 52.5 29.1806 L 52.5 22.7344 C 52.4999 22.5168 52.4134 22.3083 52.2596 22.1545 C 52.1058 22.0006 51.8972 21.9142 51.6797 21.9141 L 44.9695 21.9141 C 44.752 20.3095 44.4698 18.7406 44.1258 17.2266 L 52.7859 17.2266 C 54.8448 20.8834 55.9862 24.985 56.1122 29.1797 L 56.1122 29.1806 Z M 52.7841 42.7744 L 44.1253 42.7744 C 44.4698 41.2603 44.752 39.6909 44.9691 38.0869 L 51.6797 38.0869 C 51.7875 38.0868 51.8942 38.0655 51.9938 38.0242 C 52.0933 37.9829 52.1838 37.9224 52.2599 37.8461 C 52.3361 37.7699 52.3965 37.6794 52.4377 37.5798 C 52.4789 37.4801 52.5001 37.3734 52.5 37.2656 L 52.5 30.8203 L 56.1122 30.8203 C 55.9862 35.015 54.8448 39.1166 52.7859 42.7734 L 52.7841 42.7744 Z M 30.8184 42.7744 L 30.8184 38.0869 L 43.3125 38.0869 C 43.088 39.6951 42.7969 41.2645 42.4397 42.7744 L 30.8184 42.7744 Z M 9.14062 36.4453 L 9.14062 23.5547 L 50.8594 23.5547 L 50.8594 36.4453 L 9.14062 36.4453 Z M 43.3125 21.9141 L 30.8203 21.9141 L 30.8203 17.2266 L 42.4411 17.2266 C 42.7969 18.7359 43.0889 20.3058 43.3125 21.9141 Z M 29.1783 17.2266 L 29.1783 21.9141 L 16.6875 21.9141 C 16.912 20.3058 17.2031 18.7364 17.5603 17.2266 L 29.1783 17.2266 Z M 16.6875 38.0859 L 29.1797 38.0859 L 29.1797 42.7734 L 17.5589 42.7734 C 17.2031 41.2636 16.9111 39.6942 16.6875 38.0859 Z M 39.5887 54.3047 C 41.472 51.2419 42.8683 47.9053 43.7278 44.4141 L 51.7852 44.4141 C 48.8224 48.8767 44.5663 52.3271 39.5873 54.3028 L 39.5887 54.3047 Z M 51.7852 15.5859 L 43.7264 15.5859 C 42.8665 12.0949 41.4702 8.75831 39.5873 5.69531 C 44.5659 7.672 48.8214 11.123 51.7837 15.5859 L 51.7852 15.5859 Z M 20.4141 5.69531 C 18.5311 8.75825 17.1348 12.0948 16.275 15.5859 L 8.21625 15.5859 C 11.1786 11.1234 15.4342 7.67285 20.4127 5.69671 L 20.4141 5.69531 Z M 8.21625 44.4141 L 16.2736 44.4141 C 17.133 47.9052 18.5292 51.2418 20.4122 54.3047 C 15.4338 52.3279 11.1785 48.8769 8.21625 44.4141 Z" stroke-linecap="round" />
</g>
		<g transform="matrix(1 0 0 1 -10.86 0)"  >
<path style="stroke: none; stroke-width: 1; stroke-dasharray: none; stroke-linecap: butt; stroke-dashoffset: 0; stroke-linejoin: miter; stroke-miterlimit: 4; fill: rgb(255,255,255); fill-rule: nonzero; opacity: 1;" vector-effect="non-scaling-stroke"  transform=" translate(-19.14, -30)" d="M 21.4636 31.4944 L 19.8333 26.543 L 18.4645 26.543 L 16.8244 31.4944 L 15.345 26.543 L 13.9659 26.543 L 16.1602 33.457 L 17.408 33.457 L 19.1489 28.3247 L 20.88 33.457 L 22.1381 33.457 L 24.3216 26.543 L 22.943 26.543 L 21.4636 31.4944 Z" stroke-linecap="round" />
</g>
		<g transform="matrix(1 0 0 1 0 0)"  >
<path style="stroke: none; stroke-width: 1; stroke-dasharray: none; stroke-linecap: butt; stroke-dashoffset: 0; stroke-linejoin: miter; stroke-miterlimit: 4; fill: rgb(255,255,255); fill-rule: nonzero; opacity: 1;" vector-effect="non-scaling-stroke"  transform=" translate(-30, -30)" d="M 31.7362 33.457 L 32.9939 33.457 L 35.1778 26.543 L 33.7987 26.543 L 32.3198 31.4944 L 30.6895 26.543 L 29.3208 26.543 L 27.6801 31.4944 L 26.2012 26.543 L 24.8222 26.543 L 27.0159 33.457 L 28.2642 33.457 L 30.0051 28.3247 L 31.7362 33.457 Z" stroke-linecap="round" />
</g>
		<g transform="matrix(1 0 0 1 10.86 0)"  >
<path style="stroke: none; stroke-width: 1; stroke-dasharray: none; stroke-linecap: butt; stroke-dashoffset: 0; stroke-linejoin: miter; stroke-miterlimit: 4; fill: rgb(255,255,255); fill-rule: nonzero; opacity: 1;" vector-effect="non-scaling-stroke"  transform=" translate(-40.86, -30)" d="M 39.1205 33.457 L 40.8609 28.3247 L 42.592 33.457 L 43.8502 33.457 L 46.0341 26.543 L 44.655 26.543 L 43.1756 31.4944 L 41.5453 26.543 L 40.1766 26.543 L 38.5364 31.4944 L 37.057 26.543 L 35.6784 26.543 L 37.8722 33.457 L 39.1205 33.457 Z" stroke-linecap="round" />
</g>
</g>
</g>
</svg>