<?xml version="1.0" encoding="UTF-8" standalone="no" ?>
<!DOCTYPE svg PUBLIC "-//W3C//DTD SVG 1.1//EN" "http://www.w3.org/Graphics/SVG/1.1/DTD/svg11.dtd">
<svg xmlns="http://www.w3.org/2000/svg" xmlns:xlink="http://www.w3.org/1999/xlink" version="1.1" width="1080" height="1080" viewBox="0 0 1080 1080" xml:space="preserve">
<desc>Created with Fabric.js 5.2.4</desc>
<defs>
</defs>
<g transform="matrix(1 0 0 1 540 540)" id="653cc72b-da67-4a73-b3b3-6f13d76c1b76"  >
<rect style="stroke: none; stroke-width: 1; stroke-dasharray: none; stroke-linecap: butt; stroke-dashoffset: 0; stroke-linejoin: miter; stroke-miterlimit: 4; fill: rgb(255,255,255); fill-rule: nonzero; opacity: 1; visibility: hidden;" vector-effect="non-scaling-stroke"  x="-540" y="-540" rx="0" ry="0" width="1080" height="1080" />
</g>
<g transform="matrix(1 0 0 1 540 540)" id="2634693c-6594-4ec4-be13-b53fb762d9af"  >
</g>
<g transform="matrix(54 0 0 54 540 540)"  >
<g style=""   >
		<g transform="matrix(1 0 0 1 2.5 -6)"  >
<path style="stroke: none; stroke-width: 1; stroke-dasharray: none; stroke-linecap: butt; stroke-dashoffset: 0; stroke-linejoin: miter; stroke-miterlimit: 4; fill: rgb(16,59,102); fill-rule: evenodd; opacity: 1;" vector-effect="non-scaling-stroke"  transform=" translate(-12.5, -1.5)" d="M 5 1.5 C 5 0.947715 5.44772 0.5 6 0.5 L 19 0.5 C 19.5523 0.5 20 0.947715 20 1.5 C 20 2.05228 19.5523 2.5 19 2.5 L 6 2.5 C 5.44772 2.5 5 2.05228 5 1.5 Z" stroke-linecap="round" />
</g>
		<g transform="matrix(1 0 0 1 2.5 0)"  >
<path style="stroke: none; stroke-width: 1; stroke-dasharray: none; stroke-linecap: butt; stroke-dashoffset: 0; stroke-linejoin: miter; stroke-miterlimit: 4; fill: rgb(16,59,102); fill-rule: evenodd; opacity: 1;" vector-effect="non-scaling-stroke"  transform=" translate(-12.5, -7.5)" d="M 5 7.5 C 5 6.94772 5.44772 6.5 6 6.5 L 19 6.5 C 19.5523 6.5 20 6.94772 20 7.5 C 20 8.05228 19.5523 8.5 19 8.5 L 6 8.5 C 5.44772 8.5 5 8.05228 5 7.5 Z" stroke-linecap="round" />
</g>
		<g transform="matrix(1 0 0 1 2.5 6)"  >
<path style="stroke: none; stroke-width: 1; stroke-dasharray: none; stroke-linecap: butt; stroke-dashoffset: 0; stroke-linejoin: miter; stroke-miterlimit: 4; fill: rgb(16,59,102); fill-rule: evenodd; opacity: 1;" vector-effect="non-scaling-stroke"  transform=" translate(-12.5, -13.5)" d="M 5 13.5 C 5 12.9477 5.44772 12.5 6 12.5 L 19 12.5 C 19.5523 12.5 20 12.9477 20 13.5 C 20 14.0523 19.5523 14.5 19 14.5 L 6 14.5 C 5.44772 14.5 5 14.0523 5 13.5 Z" stroke-linecap="round" />
</g>
		<g transform="matrix(1 0 0 1 -9 -6)"  >
<path style="stroke: none; stroke-width: 1; stroke-dasharray: none; stroke-linecap: butt; stroke-dashoffset: 0; stroke-linejoin: miter; stroke-miterlimit: 4; fill: rgb(16,59,102); fill-rule: evenodd; opacity: 1;" vector-effect="non-scaling-stroke"  transform=" translate(-1, -1.5)" d="M 0 1.5 C 0 0.947715 0.447715 0.5 1 0.5 L 1.01 0.5 C 1.56228 0.5 2.01 0.947715 2.01 1.5 C 2.01 2.05228 1.56228 2.5 1.01 2.5 L 1 2.5 C 0.447715 2.5 0 2.05228 0 1.5 Z" stroke-linecap="round" />
</g>
		<g transform="matrix(1 0 0 1 -9 0)"  >
<path style="stroke: none; stroke-width: 1; stroke-dasharray: none; stroke-linecap: butt; stroke-dashoffset: 0; stroke-linejoin: miter; stroke-miterlimit: 4; fill: rgb(16,59,102); fill-rule: evenodd; opacity: 1;" vector-effect="non-scaling-stroke"  transform=" translate(-1, -7.5)" d="M 0 7.5 C 0 6.94772 0.447715 6.5 1 6.5 L 1.01 6.5 C 1.56228 6.5 2.01 6.94772 2.01 7.5 C 2.01 8.05228 1.56228 8.5 1.01 8.5 L 1 8.5 C 0.447715 8.5 0 8.05228 0 7.5 Z" stroke-linecap="round" />
</g>
		<g transform="matrix(1 0 0 1 -9 6)"  >
<path style="stroke: none; stroke-width: 1; stroke-dasharray: none; stroke-linecap: butt; stroke-dashoffset: 0; stroke-linejoin: miter; stroke-miterlimit: 4; fill: rgb(16,59,102); fill-rule: evenodd; opacity: 1;" vector-effect="non-scaling-stroke"  transform=" translate(-1, -13.5)" d="M 0 13.5 C 0 12.9477 0.447715 12.5 1 12.5 L 1.01 12.5 C 1.56228 12.5 2.01 12.9477 2.01 13.5 C 2.01 14.0523 1.56228 14.5 1.01 14.5 L 1 14.5 C 0.447715 14.5 0 14.0523 0 13.5 Z" stroke-linecap="round" />
</g>
</g>
</g>
</svg>