<?xml version="1.0" encoding="UTF-8" standalone="no" ?>
<!DOCTYPE svg PUBLIC "-//W3C//DTD SVG 1.1//EN" "http://www.w3.org/Graphics/SVG/1.1/DTD/svg11.dtd">
<svg xmlns="http://www.w3.org/2000/svg" xmlns:xlink="http://www.w3.org/1999/xlink" version="1.1" width="1080" height="1080" viewBox="0 0 1080 1080" xml:space="preserve">
<desc>Created with Fabric.js 5.2.4</desc>
<defs>
</defs>
<g transform="matrix(1 0 0 1 540 540)" id="f3037ef8-c43f-46fe-adcc-12d9439296e1"  >
<rect style="stroke: none; stroke-width: 1; stroke-dasharray: none; stroke-linecap: butt; stroke-dashoffset: 0; stroke-linejoin: miter; stroke-miterlimit: 4; fill: rgb(255,255,255); fill-rule: nonzero; opacity: 1; visibility: hidden;" vector-effect="non-scaling-stroke"  x="-540" y="-540" rx="0" ry="0" width="1080" height="1080" />
</g>
<g transform="matrix(1 0 0 1 540 540)" id="511c4f8d-f6fe-44ea-8f0b-abb77ecd1a77"  >
</g>
<g transform="matrix(43.2 0 0 43.2 540 540)"  >
<g style=""   >
		<g transform="matrix(1 0 0 1 0 0)"  >
<path style="stroke: rgb(16,59,102); stroke-width: 2; stroke-dasharray: none; stroke-linecap: round; stroke-dashoffset: 0; stroke-linejoin: round; stroke-miterlimit: 4; fill: none; fill-rule: nonzero; opacity: 1;" vector-effect="non-scaling-stroke"  transform=" translate(-12.5, -12.5)" d="M 14.5 2.5 L 6.5 2.5 C 5.96957 2.5 5.46086 2.71071 5.08579 3.08579 C 4.71071 3.46086 4.5 3.96957 4.5 4.5 L 4.5 20.5 C 4.5 21.0304 4.71071 21.5391 5.08579 21.9142 C 5.46086 22.2893 5.96957 22.5 6.5 22.5 L 18.5 22.5 C 19.0304 22.5 19.5391 22.2893 19.9142 21.9142 C 20.2893 21.5391 20.5 21.0304 20.5 20.5 L 20.5 8.5 L 14.5 2.5 Z" stroke-linecap="round" />
</g>
		<g transform="matrix(1 0 0 1 5 -7)"  >
<path style="stroke: rgb(16,59,102); stroke-width: 2; stroke-dasharray: none; stroke-linecap: round; stroke-dashoffset: 0; stroke-linejoin: round; stroke-miterlimit: 4; fill: none; fill-rule: nonzero; opacity: 1;" vector-effect="non-scaling-stroke"  transform=" translate(-17.5, -5.5)" d="M 14.5 2.5 L 14.5 8.5 L 20.5 8.5" stroke-linecap="round" />
</g>
		<g transform="matrix(1 0 0 1 0 1)"  >
<path style="stroke: rgb(16,59,102); stroke-width: 2; stroke-dasharray: none; stroke-linecap: round; stroke-dashoffset: 0; stroke-linejoin: round; stroke-miterlimit: 4; fill: none; fill-rule: nonzero; opacity: 1;" vector-effect="non-scaling-stroke"  transform=" translate(-12.5, -13.5)" d="M 16.5 13.5 L 8.5 13.5" stroke-linecap="round" />
</g>
		<g transform="matrix(1 0 0 1 0 5)"  >
<path style="stroke: rgb(16,59,102); stroke-width: 2; stroke-dasharray: none; stroke-linecap: round; stroke-dashoffset: 0; stroke-linejoin: round; stroke-miterlimit: 4; fill: none; fill-rule: nonzero; opacity: 1;" vector-effect="non-scaling-stroke"  transform=" translate(-12.5, -17.5)" d="M 16.5 17.5 L 8.5 17.5" stroke-linecap="round" />
</g>
		<g transform="matrix(1 0 0 1 -3 -3)"  >
<path style="stroke: rgb(16,59,102); stroke-width: 2; stroke-dasharray: none; stroke-linecap: round; stroke-dashoffset: 0; stroke-linejoin: round; stroke-miterlimit: 4; fill: none; fill-rule: nonzero; opacity: 1;" vector-effect="non-scaling-stroke"  transform=" translate(-9.5, -9.5)" d="M 10.5 9.5 L 9.5 9.5 L 8.5 9.5" stroke-linecap="round" />
</g>
</g>
</g>
</svg>