<?xml version="1.0" encoding="UTF-8" standalone="no" ?>
<!DOCTYPE svg PUBLIC "-//W3C//DTD SVG 1.1//EN" "http://www.w3.org/Graphics/SVG/1.1/DTD/svg11.dtd">
<svg xmlns="http://www.w3.org/2000/svg" xmlns:xlink="http://www.w3.org/1999/xlink" version="1.1" width="1080" height="1080" viewBox="0 0 1080 1080" xml:space="preserve">
<desc>Created with Fabric.js 5.2.4</desc>
<defs>
</defs>
<g transform="matrix(1 0 0 1 540 540)" id="a7da7fe0-0eae-497a-81b8-090f89c6bb1d"  >
<rect style="stroke: none; stroke-width: 1; stroke-dasharray: none; stroke-linecap: butt; stroke-dashoffset: 0; stroke-linejoin: miter; stroke-miterlimit: 4; fill: rgb(255,255,255); fill-rule: nonzero; opacity: 1; visibility: hidden;" vector-effect="non-scaling-stroke"  x="-540" y="-540" rx="0" ry="0" width="1080" height="1080" />
</g>
<g transform="matrix(1 0 0 1 540 540)" id="e9d4ce40-d58e-45d3-b28d-e649f6d51da9"  >
</g>
<g transform="matrix(43.2 0 0 43.2 540 540)"  >
<g style=""   >
		<g transform="matrix(1 0 0 1 -1.5 1.5)"  >
<path style="stroke: rgb(33,184,249); stroke-width: 2; stroke-dasharray: none; stroke-linecap: round; stroke-dashoffset: 0; stroke-linejoin: round; stroke-miterlimit: 4; fill: none; fill-rule: nonzero; opacity: 1;" vector-effect="non-scaling-stroke"  transform=" translate(-11, -13.5)" d="M 18.5 13 L 18.5 19 C 18.5 19.5304 18.2893 20.0391 17.9142 20.4142 C 17.5391 20.7893 17.0304 21 16.5 21 L 5.5 21 C 4.96957 21 4.46086 20.7893 4.08579 20.4142 C 3.71071 20.0391 3.5 19.5304 3.5 19 L 3.5 8 C 3.5 7.46957 3.71071 6.96086 4.08579 6.58579 C 4.46086 6.21071 4.96957 6 5.5 6 L 11.5 6" stroke-linecap="round" />
</g>
		<g transform="matrix(1 0 0 1 6 -6)"  >
<path style="stroke: rgb(33,184,249); stroke-width: 2; stroke-dasharray: none; stroke-linecap: round; stroke-dashoffset: 0; stroke-linejoin: round; stroke-miterlimit: 4; fill: none; fill-rule: nonzero; opacity: 1;" vector-effect="non-scaling-stroke"  transform=" translate(-18.5, -6)" d="M 15.5 3 L 21.5 3 L 21.5 9" stroke-linecap="round" />
</g>
		<g transform="matrix(1 0 0 1 3.5 -3.5)"  >
<path style="stroke: rgb(33,184,249); stroke-width: 2; stroke-dasharray: none; stroke-linecap: round; stroke-dashoffset: 0; stroke-linejoin: round; stroke-miterlimit: 4; fill: none; fill-rule: nonzero; opacity: 1;" vector-effect="non-scaling-stroke"  transform=" translate(-16, -8.5)" d="M 10.5 14 L 21.5 3" stroke-linecap="round" />
</g>
</g>
</g>
</svg>